<svg xmlns="http://www.w3.org/2000/svg" viewBox="0 0 32 32" width="32" height="32">
  <defs>
    <linearGradient id="bg" x1="0%" y1="0%" x2="100%" y2="100%">
      <stop offset="0%" stop-color="#1ED760"/>
      <stop offset="100%" stop-color="#15a049"/>
    </linearGradient>
  </defs>
  <rect width="32" height="32" rx="7" fill="url(#bg)"/>
  <path d="M21.5 7.5v14.2c0 .3-.1.6-.2.8-.3.5-.8.9-1.4 1.1-.4.1-.9.2-1.4.2-.5 0-1-.1-1.4-.3-.7-.3-1.1-.9-1.1-1.6 0-.7.4-1.3 1.1-1.6.4-.2.9-.3 1.5-.4.5-.1 1-.2 1.3-.4.2-.1.3-.3.3-.5V13l-8.4 1.8v6.9c0 .3-.1.6-.2.8-.3.5-.8.9-1.4 1.1-.4.1-.9.2-1.4.2-.5 0-1-.1-1.4-.3-.7-.3-1.1-.9-1.1-1.6 0-.7.4-1.3 1.1-1.6.4-.2.9-.3 1.5-.4.5-.1 1-.2 1.3-.4.2-.1.3-.3.3-.5V11.5c0-.3.1-.5.3-.7.1-.2.3-.3.6-.4l9.2-2.2c.1 0 .3 0 .4.1.2.1.3.3.3.5v-.3z" fill="#fff"/>
</svg>
